<mxfile host="app.diagrams.net" modified="2024-05-20T11:54:52.806Z" agent="Mozilla/5.0 (Windows NT 10.0; Win64; x64) AppleWebKit/537.36 (KHTML, like Gecko) Chrome/124.0.0.0 Safari/537.36" etag="On_-KDTRG35vxWdASh6W" version="24.4.4" type="github">
  <diagram id="R2lEEEUBdFMjLlhIrx00" name="Page-1">
    <mxGraphModel dx="1050" dy="530" grid="0" gridSize="10" guides="1" tooltips="1" connect="1" arrows="1" fold="1" page="0" pageScale="1" pageWidth="850" pageHeight="1100" math="0" shadow="0" extFonts="Permanent Marker^https://fonts.googleapis.com/css?family=Permanent+Marker">
      <root>
        <mxCell id="0" />
        <mxCell id="1" parent="0" />
        <mxCell id="PiFNoeX3lKVi4Q72-SqG-4" value="&lt;font style=&quot;font-size: 20px;&quot;&gt;Sales&lt;/font&gt;" style="swimlane;childLayout=stackLayout;horizontal=1;startSize=50;horizontalStack=0;rounded=1;fontSize=14;fontStyle=0;strokeWidth=2;resizeParent=0;resizeLast=1;shadow=0;dashed=0;align=center;arcSize=4;whiteSpace=wrap;html=1;" vertex="1" parent="1">
          <mxGeometry x="240" y="230" width="160" height="80" as="geometry" />
        </mxCell>
        <mxCell id="PiFNoeX3lKVi4Q72-SqG-6" value="&lt;font style=&quot;font-size: 20px;&quot;&gt;Customers&lt;/font&gt;" style="swimlane;childLayout=stackLayout;horizontal=1;startSize=50;horizontalStack=0;rounded=1;fontSize=14;fontStyle=0;strokeWidth=2;resizeParent=0;resizeLast=1;shadow=0;dashed=0;align=center;arcSize=4;whiteSpace=wrap;html=1;" vertex="1" parent="1">
          <mxGeometry x="19" y="184" width="160" height="80" as="geometry" />
        </mxCell>
        <mxCell id="PiFNoeX3lKVi4Q72-SqG-7" value="&lt;font style=&quot;font-size: 20px;&quot;&gt;Channels&lt;/font&gt;" style="swimlane;childLayout=stackLayout;horizontal=1;startSize=50;horizontalStack=0;rounded=1;fontSize=14;fontStyle=0;strokeWidth=2;resizeParent=0;resizeLast=1;shadow=0;dashed=0;align=center;arcSize=4;whiteSpace=wrap;html=1;" vertex="1" parent="1">
          <mxGeometry x="80" y="378" width="160" height="80" as="geometry" />
        </mxCell>
        <mxCell id="PiFNoeX3lKVi4Q72-SqG-8" value="&lt;font style=&quot;font-size: 20px;&quot;&gt;Products&lt;/font&gt;" style="swimlane;childLayout=stackLayout;horizontal=1;startSize=50;horizontalStack=0;rounded=1;fontSize=14;fontStyle=0;strokeWidth=2;resizeParent=0;resizeLast=1;shadow=0;dashed=0;align=center;arcSize=4;whiteSpace=wrap;html=1;" vertex="1" parent="1">
          <mxGeometry x="240" y="48" width="160" height="80" as="geometry" />
        </mxCell>
        <mxCell id="PiFNoeX3lKVi4Q72-SqG-9" value="&lt;font style=&quot;font-size: 20px;&quot;&gt;Promotions&lt;/font&gt;" style="swimlane;childLayout=stackLayout;horizontal=1;startSize=50;horizontalStack=0;rounded=1;fontSize=14;fontStyle=0;strokeWidth=2;resizeParent=0;resizeLast=1;shadow=0;dashed=0;align=center;arcSize=4;whiteSpace=wrap;html=1;" vertex="1" parent="1">
          <mxGeometry x="461" y="184" width="160" height="80" as="geometry" />
        </mxCell>
        <mxCell id="PiFNoeX3lKVi4Q72-SqG-10" value="&lt;font style=&quot;font-size: 20px;&quot;&gt;Times&lt;/font&gt;" style="swimlane;childLayout=stackLayout;horizontal=1;startSize=50;horizontalStack=0;rounded=1;fontSize=14;fontStyle=0;strokeWidth=2;resizeParent=0;resizeLast=1;shadow=0;dashed=0;align=center;arcSize=4;whiteSpace=wrap;html=1;" vertex="1" parent="1">
          <mxGeometry x="400" y="378" width="160" height="80" as="geometry" />
        </mxCell>
        <mxCell id="PiFNoeX3lKVi4Q72-SqG-11" value="" style="edgeStyle=entityRelationEdgeStyle;fontSize=12;html=1;endArrow=ERoneToMany;rounded=0;exitX=1;exitY=0.25;exitDx=0;exitDy=0;entryX=0.25;entryY=1;entryDx=0;entryDy=0;" edge="1" parent="1" source="PiFNoeX3lKVi4Q72-SqG-7" target="PiFNoeX3lKVi4Q72-SqG-4">
          <mxGeometry width="100" height="100" relative="1" as="geometry">
            <mxPoint x="240" y="470" as="sourcePoint" />
            <mxPoint x="213" y="315" as="targetPoint" />
          </mxGeometry>
        </mxCell>
        <mxCell id="PiFNoeX3lKVi4Q72-SqG-12" value="" style="edgeStyle=entityRelationEdgeStyle;fontSize=12;html=1;endArrow=ERoneToMany;rounded=0;exitX=1.008;exitY=0.34;exitDx=0;exitDy=0;exitPerimeter=0;entryX=0;entryY=0.5;entryDx=0;entryDy=0;" edge="1" parent="1" source="PiFNoeX3lKVi4Q72-SqG-6" target="PiFNoeX3lKVi4Q72-SqG-4">
          <mxGeometry width="100" height="100" relative="1" as="geometry">
            <mxPoint x="250" y="190" as="sourcePoint" />
            <mxPoint x="193" y="270" as="targetPoint" />
          </mxGeometry>
        </mxCell>
        <mxCell id="PiFNoeX3lKVi4Q72-SqG-14" value="" style="edgeStyle=entityRelationEdgeStyle;fontSize=12;html=1;endArrow=ERoneToMany;rounded=0;exitX=0;exitY=0.5;exitDx=0;exitDy=0;" edge="1" parent="1" source="PiFNoeX3lKVi4Q72-SqG-9" target="PiFNoeX3lKVi4Q72-SqG-4">
          <mxGeometry width="100" height="100" relative="1" as="geometry">
            <mxPoint x="444" y="323" as="sourcePoint" />
            <mxPoint x="407" y="359" as="targetPoint" />
          </mxGeometry>
        </mxCell>
        <mxCell id="PiFNoeX3lKVi4Q72-SqG-15" value="" style="edgeStyle=entityRelationEdgeStyle;fontSize=12;html=1;endArrow=ERoneToMany;rounded=0;exitX=0;exitY=0.25;exitDx=0;exitDy=0;entryX=0.75;entryY=1;entryDx=0;entryDy=0;" edge="1" parent="1" source="PiFNoeX3lKVi4Q72-SqG-10" target="PiFNoeX3lKVi4Q72-SqG-4">
          <mxGeometry width="100" height="100" relative="1" as="geometry">
            <mxPoint x="268" y="479" as="sourcePoint" />
            <mxPoint x="368" y="379" as="targetPoint" />
          </mxGeometry>
        </mxCell>
        <mxCell id="PiFNoeX3lKVi4Q72-SqG-16" value="" style="edgeStyle=entityRelationEdgeStyle;fontSize=12;html=1;endArrow=ERoneToMany;rounded=0;exitX=0.5;exitY=1;exitDx=0;exitDy=0;entryX=0.5;entryY=0;entryDx=0;entryDy=0;" edge="1" parent="1" source="PiFNoeX3lKVi4Q72-SqG-8" target="PiFNoeX3lKVi4Q72-SqG-4">
          <mxGeometry width="100" height="100" relative="1" as="geometry">
            <mxPoint x="314" y="157" as="sourcePoint" />
            <mxPoint x="320" y="194" as="targetPoint" />
            <Array as="points">
              <mxPoint x="324" y="159" />
            </Array>
          </mxGeometry>
        </mxCell>
      </root>
    </mxGraphModel>
  </diagram>
</mxfile>
